<?xml version="1.0" standalone="no"?>
<!DOCTYPE svg PUBLIC "-//W3C//DTD SVG 20010904//EN"
 "http://www.w3.org/TR/2001/REC-SVG-20010904/DTD/svg10.dtd">
<svg version="1.0" xmlns="http://www.w3.org/2000/svg"
 width="576.000000pt" height="576.000000pt" viewBox="0 0 576.000000 576.000000"
 preserveAspectRatio="xMidYMid meet">
<metadata>
Created by potrace 1.11, written by Peter Selinger 2001-2013
</metadata>
<g transform="translate(0.000000,576.000000) scale(0.100000,-0.100000)"
fill="#000000" stroke="none">
<path d="M1350 3290 c0 -133 5 -125 -74 -120 -24 1 -36 -2 -32 -8 4 -7 -22
-10 -76 -10 -109 0 -138 -3 -138 -14 0 -5 -4 -7 -8 -4 -5 3 -23 -4 -40 -15
-18 -10 -39 -19 -48 -19 -23 0 -11 24 14 28 12 2 22 7 22 12 0 5 12 13 28 18
27 10 27 10 2 11 -30 1 -130 -58 -130 -77 0 -7 4 -11 9 -7 17 10 22 -13 6 -28
-19 -20 -19 -37 0 -37 8 0 15 -4 15 -9 0 -5 -7 -11 -15 -15 -20 -7 -19 -36 2
-36 14 0 15 -2 1 -17 -11 -13 -16 -44 -17 -108 -1 -59 2 -85 8 -75 5 8 8 17 5
21 -2 4 0 10 6 14 6 4 8 11 5 16 -4 5 -1 9 4 9 18 0 26 -5 23 -12 -1 -5 2 -8
8 -8 5 0 10 5 10 12 0 6 3 8 7 5 3 -4 -3 -17 -13 -30 -50 -56 -58 -79 -61
-179 -2 -81 1 -98 13 -98 12 0 12 -4 4 -20 -11 -20 3 -30 15 -10 3 6 14 10 23
9 11 0 12 -2 4 -6 -6 -2 -10 -8 -7 -13 7 -11 55 0 55 13 0 7 4 7 12 -1 17 -17
26 -15 30 8 4 27 23 26 22 0 -1 -11 2 -20 6 -20 15 0 18 13 9 43 -5 17 -6 33
-4 36 7 6 34 -32 29 -41 -2 -4 0 -9 6 -13 6 -4 8 -11 5 -16 -8 -13 42 -11 67
2 12 6 18 7 14 1 -3 -5 3 -12 15 -15 15 -4 18 -2 10 7 -6 7 -9 15 -6 18 9 9
55 -4 49 -13 -8 -14 90 -11 104 3 9 9 12 9 12 -1 0 -11 3 -11 15 -1 11 10 15
10 15 0 0 -6 6 -10 13 -7 6 2 12 10 12 17 0 7 5 15 12 17 8 3 10 -4 7 -21 -4
-24 -2 -26 32 -26 24 0 49 -9 71 -26 18 -14 63 -39 101 -57 62 -29 76 -32 180
-34 128 -3 186 13 280 74 91 61 145 134 186 256 26 76 28 112 30 435 l2 302
-216 0 -215 0 0 -279 c-1 -249 -3 -281 -19 -305 -11 -18 -24 -26 -39 -24 -42
6 -47 36 -47 331 l0 277 -215 0 -215 0 0 -120z"/>
<path d="M2490 3403 c-1 -13 -1 -943 -1 -1000 l1 -53 215 0 215 0 2 260 3 261
74 -96 c41 -53 77 -94 82 -93 4 2 42 45 83 96 42 52 76 90 77 85 0 -4 1 -122
1 -260 l1 -253 214 0 c163 0 213 3 214 13 0 6 0 244 0 527 l0 515 -210 3 -209
2 -82 -105 c-46 -58 -86 -105 -90 -105 -4 0 -44 47 -90 105 l-83 105 -209 0
c-114 0 -208 -3 -208 -7z"/>
<path d="M3871 2880 l0 -530 215 0 c164 0 214 3 215 13 0 6 1 245 2 529 l2
518 -217 0 -216 0 -1 -530z"/>
<path d="M877 3163 c-4 -3 -7 -10 -7 -14 0 -9 39 1 46 12 6 10 -29 12 -39 2z"/>
</g>
</svg>
